<?xml version="1.0" encoding="UTF-8"?>
<!--Generator: Apple Native CoreSVG 123-->
<!DOCTYPE svg
PUBLIC "-//W3C//DTD SVG 1.1//EN"
       "http://www.w3.org/Graphics/SVG/1.1/DTD/svg11.dtd">
<svg version="1.1" xmlns="http://www.w3.org/2000/svg" xmlns:xlink="http://www.w3.org/1999/xlink" width="3300" height="2200">
 <!--glyph: "uni100333.medium", point size: 100.000000, font version: "Version 15.0d7e11", template writer version: "5"-->
 <g id="Notes">
  <rect height="2200" id="artboard" style="fill:white;opacity:1" width="3300" x="0" y="0"/>
  <line id="" style="fill:none;stroke:black;opacity:1;stroke-width:0.5;" x1="263" x2="3036" y1="292" y2="292"/>
  <text style="stroke:none;fill:black;font-family:-apple-system,&quot;SF Pro Display&quot;,&quot;SF Pro Text&quot;,Helvetica,sans-serif;font-weight:bold;" transform="matrix(1 0 0 1 263 322)">Weight/Scale Variations</text>
  <text style="stroke:none;fill:black;font-family:-apple-system,&quot;SF Pro Display&quot;,&quot;SF Pro Text&quot;,Helvetica,sans-serif;text-anchor:middle;" transform="matrix(1 0 0 1 559.711 322)">Ultralight</text>
  <text style="stroke:none;fill:black;font-family:-apple-system,&quot;SF Pro Display&quot;,&quot;SF Pro Text&quot;,Helvetica,sans-serif;text-anchor:middle;" transform="matrix(1 0 0 1 856.422 322)">Thin</text>
  <text style="stroke:none;fill:black;font-family:-apple-system,&quot;SF Pro Display&quot;,&quot;SF Pro Text&quot;,Helvetica,sans-serif;text-anchor:middle;" transform="matrix(1 0 0 1 1153.13 322)">Light</text>
  <text style="stroke:none;fill:black;font-family:-apple-system,&quot;SF Pro Display&quot;,&quot;SF Pro Text&quot;,Helvetica,sans-serif;text-anchor:middle;" transform="matrix(1 0 0 1 1449.84 322)">Regular</text>
  <text style="stroke:none;fill:black;font-family:-apple-system,&quot;SF Pro Display&quot;,&quot;SF Pro Text&quot;,Helvetica,sans-serif;text-anchor:middle;" transform="matrix(1 0 0 1 1746.56 322)">Medium</text>
  <text style="stroke:none;fill:black;font-family:-apple-system,&quot;SF Pro Display&quot;,&quot;SF Pro Text&quot;,Helvetica,sans-serif;text-anchor:middle;" transform="matrix(1 0 0 1 2043.27 322)">Semibold</text>
  <text style="stroke:none;fill:black;font-family:-apple-system,&quot;SF Pro Display&quot;,&quot;SF Pro Text&quot;,Helvetica,sans-serif;text-anchor:middle;" transform="matrix(1 0 0 1 2339.98 322)">Bold</text>
  <text style="stroke:none;fill:black;font-family:-apple-system,&quot;SF Pro Display&quot;,&quot;SF Pro Text&quot;,Helvetica,sans-serif;text-anchor:middle;" transform="matrix(1 0 0 1 2636.69 322)">Heavy</text>
  <text style="stroke:none;fill:black;font-family:-apple-system,&quot;SF Pro Display&quot;,&quot;SF Pro Text&quot;,Helvetica,sans-serif;text-anchor:middle;" transform="matrix(1 0 0 1 2933.4 322)">Black</text>
  <line id="" style="fill:none;stroke:black;opacity:1;stroke-width:0.5;" x1="263" x2="3036" y1="1903" y2="1903"/>
  <g id="" transform="matrix(1 0 0 1 263 1933)">
   <path d="M 9.24805 0.830078 C 13.5547 0.830078 17.1387 -2.74414 17.1387 -7.05078 C 17.1387 -11.3574 13.5449 -14.9316 9.23828 -14.9316 C 4.94141 -14.9316 1.36719 -11.3574 1.36719 -7.05078 C 1.36719 -2.74414 4.95117 0.830078 9.24805 0.830078 Z M 9.24805 -0.654297 C 5.70312 -0.654297 2.87109 -3.49609 2.87109 -7.05078 C 2.87109 -10.6055 5.69336 -13.4473 9.23828 -13.4473 C 12.793 -13.4473 15.6348 -10.6055 15.6445 -7.05078 C 15.6543 -3.49609 12.8027 -0.654297 9.24805 -0.654297 Z M 9.22852 -3.42773 C 9.69727 -3.42773 9.9707 -3.74023 9.9707 -4.25781 L 9.9707 -6.31836 L 12.1973 -6.31836 C 12.6953 -6.31836 13.0371 -6.57227 13.0371 -7.04102 C 13.0371 -7.51953 12.7148 -7.7832 12.1973 -7.7832 L 9.9707 -7.7832 L 9.9707 -10.0098 C 9.9707 -10.5273 9.69727 -10.8496 9.22852 -10.8496 C 8.75977 -10.8496 8.50586 -10.5078 8.50586 -10.0098 L 8.50586 -7.7832 L 6.29883 -7.7832 C 5.78125 -7.7832 5.44922 -7.51953 5.44922 -7.04102 C 5.44922 -6.57227 5.80078 -6.31836 6.29883 -6.31836 L 8.50586 -6.31836 L 8.50586 -4.25781 C 8.50586 -3.75977 8.75977 -3.42773 9.22852 -3.42773 Z"/>
  </g>
  <g id="" transform="matrix(1 0 0 1 281.506 1933)">
   <path d="M 11.709 2.91016 C 17.1582 2.91016 21.6699 -1.60156 21.6699 -7.05078 C 21.6699 -12.4902 17.1484 -17.0117 11.6992 -17.0117 C 6.25977 -17.0117 1.74805 -12.4902 1.74805 -7.05078 C 1.74805 -1.60156 6.26953 2.91016 11.709 2.91016 Z M 11.709 1.25 C 7.09961 1.25 3.41797 -2.44141 3.41797 -7.05078 C 3.41797 -11.6504 7.08984 -15.3516 11.6992 -15.3516 C 16.3086 -15.3516 20 -11.6504 20.0098 -7.05078 C 20.0195 -2.44141 16.3184 1.25 11.709 1.25 Z M 11.6895 -2.41211 C 12.207 -2.41211 12.5195 -2.77344 12.5195 -3.33984 L 12.5195 -6.23047 L 15.5762 -6.23047 C 16.123 -6.23047 16.5039 -6.51367 16.5039 -7.03125 C 16.5039 -7.55859 16.1426 -7.86133 15.5762 -7.86133 L 12.5195 -7.86133 L 12.5195 -10.9277 C 12.5195 -11.5039 12.207 -11.8555 11.6895 -11.8555 C 11.1719 -11.8555 10.8789 -11.4844 10.8789 -10.9277 L 10.8789 -7.86133 L 7.83203 -7.86133 C 7.26562 -7.86133 6.89453 -7.55859 6.89453 -7.03125 C 6.89453 -6.51367 7.28516 -6.23047 7.83203 -6.23047 L 10.8789 -6.23047 L 10.8789 -3.33984 C 10.8789 -2.79297 11.1719 -2.41211 11.6895 -2.41211 Z"/>
  </g>
  <g id="" transform="matrix(1 0 0 1 304.924 1933)">
   <path d="M 14.9707 5.67383 C 21.9336 5.67383 27.6953 -0.078125 27.6953 -7.04102 C 27.6953 -14.0039 21.9238 -19.7559 14.9609 -19.7559 C 8.00781 -19.7559 2.25586 -14.0039 2.25586 -7.04102 C 2.25586 -0.078125 8.01758 5.67383 14.9707 5.67383 Z M 14.9707 3.85742 C 8.93555 3.85742 4.08203 -1.00586 4.08203 -7.04102 C 4.08203 -13.0762 8.92578 -17.9395 14.9609 -17.9395 C 21.0059 -17.9395 25.8594 -13.0762 25.8691 -7.04102 C 25.8789 -1.00586 21.0156 3.85742 14.9707 3.85742 Z M 14.9512 -1.06445 C 15.5176 -1.06445 15.8691 -1.45508 15.8691 -2.06055 L 15.8691 -6.13281 L 20.1074 -6.13281 C 20.6934 -6.13281 21.1133 -6.46484 21.1133 -7.02148 C 21.1133 -7.59766 20.7227 -7.93945 20.1074 -7.93945 L 15.8691 -7.93945 L 15.8691 -12.1875 C 15.8691 -12.8027 15.5176 -13.1934 14.9512 -13.1934 C 14.3848 -13.1934 14.0625 -12.7832 14.0625 -12.1875 L 14.0625 -7.93945 L 9.83398 -7.93945 C 9.21875 -7.93945 8.80859 -7.59766 8.80859 -7.02148 C 8.80859 -6.46484 9.23828 -6.13281 9.83398 -6.13281 L 14.0625 -6.13281 L 14.0625 -2.06055 C 14.0625 -1.47461 14.3848 -1.06445 14.9512 -1.06445 Z"/>
  </g>
  <text style="stroke:none;fill:black;font-family:-apple-system,&quot;SF Pro Display&quot;,&quot;SF Pro Text&quot;,Helvetica,sans-serif;font-weight:bold;" transform="matrix(1 0 0 1 263 1953)">Design Variations</text>
  <text style="stroke:none;fill:black;font-family:-apple-system,&quot;SF Pro Display&quot;,&quot;SF Pro Text&quot;,Helvetica,sans-serif;" transform="matrix(1 0 0 1 263 1971)">Symbols are supported in up to nine weights and three scales.</text>
  <text style="stroke:none;fill:black;font-family:-apple-system,&quot;SF Pro Display&quot;,&quot;SF Pro Text&quot;,Helvetica,sans-serif;" transform="matrix(1 0 0 1 263 1989)">For optimal layout with text and other symbols, vertically align</text>
  <text style="stroke:none;fill:black;font-family:-apple-system,&quot;SF Pro Display&quot;,&quot;SF Pro Text&quot;,Helvetica,sans-serif;" transform="matrix(1 0 0 1 263 2007)">symbols with the adjacent text.</text>
  <rect height="14" id="" style="fill:#00AEEF;stroke:none;opacity:0.4;" width="3" x="776" y="1919"/>
  <g id="" transform="matrix(1 0 0 1 779 1933)">
   <path d="M 10.5273 0 L 12.373 0 L 7.17773 -14.0918 L 5.43945 -14.0918 L 0.244141 0 L 2.08984 0 L 3.50586 -4.0332 L 9.11133 -4.0332 Z M 6.2793 -11.9531 L 6.33789 -11.9531 L 8.59375 -5.52734 L 4.02344 -5.52734 Z"/>
  </g>
  <rect height="14" id="" style="fill:#00AEEF;stroke:none;opacity:0.4;" width="3" x="791.617" y="1919"/>
  <text style="stroke:none;fill:black;font-family:-apple-system,&quot;SF Pro Display&quot;,&quot;SF Pro Text&quot;,Helvetica,sans-serif;font-weight:bold;" transform="matrix(1 0 0 1 776 1953)">Margins</text>
  <text style="stroke:none;fill:black;font-family:-apple-system,&quot;SF Pro Display&quot;,&quot;SF Pro Text&quot;,Helvetica,sans-serif;" transform="matrix(1 0 0 1 776 1971)">Leading and trailing margins on the left and right side of each symbol</text>
  <text style="stroke:none;fill:black;font-family:-apple-system,&quot;SF Pro Display&quot;,&quot;SF Pro Text&quot;,Helvetica,sans-serif;" transform="matrix(1 0 0 1 776 1989)">can be adjusted by modifying the width of the blue rectangles.</text>
  <text style="stroke:none;fill:black;font-family:-apple-system,&quot;SF Pro Display&quot;,&quot;SF Pro Text&quot;,Helvetica,sans-serif;" transform="matrix(1 0 0 1 776 2007)">Modifications are automatically applied proportionally to all</text>
  <text style="stroke:none;fill:black;font-family:-apple-system,&quot;SF Pro Display&quot;,&quot;SF Pro Text&quot;,Helvetica,sans-serif;" transform="matrix(1 0 0 1 776 2025)">scales and weights.</text>
  <g id="" transform="matrix(1 0 0 1 1289 1933)">
   <path d="M 2.83203 3.11523 L 4.375 4.6582 C 5.22461 5.48828 6.19141 5.41992 7.06055 4.46289 L 17.2754 -6.66016 C 17.7051 -6.36719 18.0957 -6.37695 18.5645 -6.47461 L 19.6094 -6.68945 L 20.3027 -5.99609 L 20.2539 -5.47852 C 20.1855 -4.95117 20.3516 -4.53125 20.8496 -4.0332 L 21.6602 -3.22266 C 22.168 -2.71484 22.8223 -2.68555 23.3008 -3.16406 L 26.5527 -6.41602 C 27.0312 -6.89453 27.0117 -7.54883 26.5039 -8.05664 L 25.6836 -8.87695 C 25.1855 -9.375 24.7754 -9.55078 24.2383 -9.47266 L 23.7109 -9.41406 L 23.0566 -10.0781 L 23.3398 -11.2207 C 23.4863 -11.7871 23.3398 -12.2559 22.7148 -12.8613 L 20.3027 -15.2539 C 16.7578 -18.7793 12.2266 -18.6719 9.11133 -15.5371 C 8.69141 -15.1074 8.64258 -14.5215 8.91602 -14.0918 C 9.15039 -13.7207 9.62891 -13.4961 10.2734 -13.6621 C 11.7871 -14.043 13.3008 -13.9258 14.7852 -12.9199 L 14.1602 -11.3379 C 13.9258 -10.752 13.9453 -10.2734 14.1797 -9.83398 L 3.01758 0.439453 C 2.08008 1.30859 1.97266 2.25586 2.83203 3.11523 Z M 10.6738 -15.1465 C 13.3398 -17.1387 16.6504 -16.8262 19.0527 -14.4141 L 21.6797 -11.8066 C 21.9141 -11.5723 21.9434 -11.3867 21.8848 -11.0938 L 21.5039 -9.53125 L 23.0762 -7.95898 L 24.043 -8.04688 C 24.3262 -8.07617 24.4141 -8.05664 24.6387 -7.83203 L 25.2637 -7.20703 L 22.5098 -4.46289 L 21.8848 -5.07812 C 21.6602 -5.30273 21.6406 -5.40039 21.6699 -5.68359 L 21.7578 -6.64062 L 20.1953 -8.20312 L 18.5742 -7.89062 C 18.291 -7.83203 18.1445 -7.83203 17.9102 -8.07617 L 15.7324 -10.2539 C 15.5078 -10.4883 15.4785 -10.625 15.6055 -10.9473 L 16.5527 -13.2227 C 14.9512 -14.7559 12.8418 -15.6055 10.8008 -14.9512 C 10.7129 -14.9219 10.6445 -14.9414 10.6152 -14.9805 C 10.5859 -15.0293 10.5859 -15.0781 10.6738 -15.1465 Z M 4.10156 2.41211 C 3.61328 1.91406 3.78906 1.61133 4.12109 1.30859 L 15.0781 -8.80859 L 16.3086 -7.57812 L 6.15234 3.34961 C 5.84961 3.68164 5.46875 3.7793 5.06836 3.37891 Z"/>
  </g>
  <text style="stroke:none;fill:black;font-family:-apple-system,&quot;SF Pro Display&quot;,&quot;SF Pro Text&quot;,Helvetica,sans-serif;font-weight:bold;" transform="matrix(1 0 0 1 1289 1953)">Exporting</text>
  <text style="stroke:none;fill:black;font-family:-apple-system,&quot;SF Pro Display&quot;,&quot;SF Pro Text&quot;,Helvetica,sans-serif;" transform="matrix(1 0 0 1 1289 1971)">Symbols should be outlined when exporting to ensure the</text>
  <text style="stroke:none;fill:black;font-family:-apple-system,&quot;SF Pro Display&quot;,&quot;SF Pro Text&quot;,Helvetica,sans-serif;" transform="matrix(1 0 0 1 1289 1989)">design is preserved when submitting to Xcode.</text>
  <text id="template-version" style="stroke:none;fill:black;font-family:-apple-system,&quot;SF Pro Display&quot;,&quot;SF Pro Text&quot;,Helvetica,sans-serif;text-anchor:end;" transform="matrix(1 0 0 1 3036 1933)">Template v.1.0</text>
  <text style="stroke:none;fill:black;font-family:-apple-system,&quot;SF Pro Display&quot;,&quot;SF Pro Text&quot;,Helvetica,sans-serif;text-anchor:end;" transform="matrix(1 0 0 1 3036 1951)">Generated from text.bubble.fill</text>
  <text style="stroke:none;fill:black;font-family:-apple-system,&quot;SF Pro Display&quot;,&quot;SF Pro Text&quot;,Helvetica,sans-serif;text-anchor:end;" transform="matrix(1 0 0 1 3036 1969)">Typeset at 100 points</text>
  <text style="stroke:none;fill:black;font-family:-apple-system,&quot;SF Pro Display&quot;,&quot;SF Pro Text&quot;,Helvetica,sans-serif;" transform="matrix(1 0 0 1 263 726)">Small</text>
  <text style="stroke:none;fill:black;font-family:-apple-system,&quot;SF Pro Display&quot;,&quot;SF Pro Text&quot;,Helvetica,sans-serif;" transform="matrix(1 0 0 1 263 1156)">Medium</text>
  <text style="stroke:none;fill:black;font-family:-apple-system,&quot;SF Pro Display&quot;,&quot;SF Pro Text&quot;,Helvetica,sans-serif;" transform="matrix(1 0 0 1 263 1586)">Large</text>
 </g>
 <g id="Guides">
  <g id="H-reference" style="fill:#27AAE1;stroke:none;" transform="matrix(1 0 0 1 339 696)">
   <path d="M 54.9316 0 L 57.666 0 L 30.5664 -70.459 L 28.0762 -70.459 L 0.976562 0 L 3.66211 0 L 12.9395 -24.4629 L 45.7031 -24.4629 Z M 29.1992 -67.0898 L 29.4434 -67.0898 L 44.8242 -26.709 L 13.8184 -26.709 Z"/>
  </g>
  <line id="Baseline-S" style="fill:none;stroke:#27AAE1;opacity:1;stroke-width:0.577;" x1="263" x2="3036" y1="696" y2="696"/>
  <line id="Capline-S" style="fill:none;stroke:#27AAE1;opacity:1;stroke-width:0.577;" x1="263" x2="3036" y1="625.541" y2="625.541"/>
  <g id="H-reference" style="fill:#27AAE1;stroke:none;" transform="matrix(1 0 0 1 339 1126)">
   <path d="M 54.9316 0 L 57.666 0 L 30.5664 -70.459 L 28.0762 -70.459 L 0.976562 0 L 3.66211 0 L 12.9395 -24.4629 L 45.7031 -24.4629 Z M 29.1992 -67.0898 L 29.4434 -67.0898 L 44.8242 -26.709 L 13.8184 -26.709 Z"/>
  </g>
  <line id="Baseline-M" style="fill:none;stroke:#27AAE1;opacity:1;stroke-width:0.577;" x1="263" x2="3036" y1="1126" y2="1126"/>
  <line id="Capline-M" style="fill:none;stroke:#27AAE1;opacity:1;stroke-width:0.577;" x1="263" x2="3036" y1="1055.54" y2="1055.54"/>
  <g id="H-reference" style="fill:#27AAE1;stroke:none;" transform="matrix(1 0 0 1 339 1556)">
   <path d="M 54.9316 0 L 57.666 0 L 30.5664 -70.459 L 28.0762 -70.459 L 0.976562 0 L 3.66211 0 L 12.9395 -24.4629 L 45.7031 -24.4629 Z M 29.1992 -67.0898 L 29.4434 -67.0898 L 44.8242 -26.709 L 13.8184 -26.709 Z"/>
  </g>
  <line id="Baseline-L" style="fill:none;stroke:#27AAE1;opacity:1;stroke-width:0.577;" x1="263" x2="3036" y1="1556" y2="1556"/>
  <line id="Capline-L" style="fill:none;stroke:#27AAE1;opacity:1;stroke-width:0.577;" x1="263" x2="3036" y1="1485.54" y2="1485.54"/>
  <rect height="119.336" id="left-margin" style="fill:#00AEEF;stroke:none;opacity:0.4;" width="12.4512" x="1383.58" y="1030.79"/>
  <rect height="119.336" id="right-margin" style="fill:#00AEEF;stroke:none;opacity:0.4;" width="12.4512" x="1503.65" y="1030.79"/>
 </g>
 <g id="Symbols">
  <g id="Black-L" transform="matrix(1 0 0 1 2846.24 1556)">
   <path d="M 55.1758 39.0625 C 58.3496 39.0625 60.9863 37.8418 64.8926 34.375 L 89.4043 12.8418 L 125.83 12.8418 C 145.703 12.8906 158.252 0.195312 158.252 -19.5801 L 158.252 -70.1172 C 158.252 -89.8926 145.703 -102.539 125.83 -102.539 L 48.4863 -102.539 C 28.6133 -102.539 16.0645 -89.8926 16.0645 -70.1172 L 16.0645 -19.5801 C 16.0645 0.195312 29.7852 12.8418 46.7285 12.8418 L 47.6562 12.8418 L 47.6562 30.8105 C 47.6562 35.9375 50.5371 39.0625 55.1758 39.0625 Z M 52.002 -61.0352 C 49.0234 -61.0352 46.5332 -63.7695 46.5332 -66.8457 C 46.5332 -69.8242 48.9746 -72.5098 52.002 -72.5098 L 122.217 -72.5098 C 125.391 -72.5098 127.881 -69.873 127.881 -66.8457 C 127.881 -63.7695 125.391 -61.0352 122.217 -61.0352 Z M 52.002 -38.5742 C 49.0234 -38.5742 46.5332 -41.2598 46.5332 -44.3359 C 46.5332 -47.3633 48.9746 -50.0488 52.002 -50.0488 L 122.217 -50.0488 C 125.391 -50.0488 127.881 -47.4121 127.881 -44.3359 C 127.881 -41.2598 125.391 -38.5742 122.217 -38.5742 Z M 52.002 -16.0645 C 49.0234 -16.0645 46.5332 -18.7988 46.5332 -21.875 C 46.5332 -24.9023 48.9746 -27.5879 52.002 -27.5879 L 97.9492 -27.5879 C 101.123 -27.5879 103.613 -25 103.613 -21.875 C 103.613 -18.7988 101.123 -16.0645 97.9492 -16.0645 Z"/>
  </g>
  <g id="Heavy-L" transform="matrix(1 0 0 1 2550.07 1556)">
   <path d="M 54.4434 37.6953 C 57.4219 37.6953 59.8145 36.5234 63.3789 33.3008 L 87.5 12.0117 L 125.879 12.0117 C 145.264 12.0605 157.178 -0.0488281 157.178 -19.2383 L 157.178 -69.6289 C 157.178 -88.8184 145.264 -100.879 125.879 -100.879 L 47.3145 -100.879 C 27.9785 -100.879 16.0645 -88.8672 16.0645 -69.6289 L 16.0645 -19.2383 C 16.0645 0 28.8574 12.0117 45.9961 12.0117 L 47.5586 12.0117 L 47.5586 30.0781 C 47.5586 34.7656 50.1465 37.6953 54.4434 37.6953 Z M 51.3672 -61.1328 C 48.584 -61.1328 46.3379 -63.623 46.3379 -66.4062 C 46.3379 -69.1406 48.584 -71.582 51.3672 -71.582 L 121.777 -71.582 C 124.658 -71.582 126.953 -69.1895 126.953 -66.4062 C 126.953 -63.623 124.658 -61.1328 121.777 -61.1328 Z M 51.3672 -38.6719 C 48.584 -38.6719 46.3379 -41.1133 46.3379 -43.8965 C 46.3379 -46.6797 48.584 -49.0723 51.3672 -49.0723 L 121.777 -49.0723 C 124.658 -49.0723 126.953 -46.7285 126.953 -43.8965 C 126.953 -41.1133 124.658 -38.6719 121.777 -38.6719 Z M 51.3672 -16.1621 C 48.584 -16.1621 46.3379 -18.6035 46.3379 -21.3867 C 46.3379 -24.2188 48.584 -26.6113 51.3672 -26.6113 L 97.4609 -26.6113 C 100.293 -26.6113 102.588 -24.2676 102.588 -21.3867 C 102.588 -18.6035 100.293 -16.1621 97.4609 -16.1621 Z"/>
  </g>
  <g id="Bold-L" transform="matrix(1 0 0 1 2253.97 1556)">
   <path d="M 53.6621 36.1816 C 56.3477 36.1816 58.4473 35.0098 61.6699 32.0801 L 85.3027 11.0352 L 125.977 11.084 C 144.727 11.1328 155.957 -0.292969 155.957 -18.8965 L 155.957 -69.043 C 155.957 -87.6465 144.727 -99.0234 125.977 -99.0234 L 46.0449 -99.0234 C 27.2461 -99.0234 16.0645 -87.6953 16.0645 -69.043 L 16.0645 -18.8965 C 16.0645 -0.244141 27.832 11.084 45.166 11.0352 L 47.4121 11.0352 L 47.4121 29.1992 C 47.4121 33.4961 49.7559 36.1816 53.6621 36.1816 Z M 50.6348 -61.2793 C 48.1445 -61.2793 46.0938 -63.4277 46.0938 -65.9668 C 46.0938 -68.4082 48.0957 -70.5566 50.6348 -70.5566 L 121.338 -70.5566 C 123.877 -70.5566 125.928 -68.457 125.928 -65.9668 C 125.928 -63.4277 123.877 -61.2793 121.338 -61.2793 Z M 50.6348 -38.7695 C 48.1445 -38.7695 46.0938 -40.918 46.0938 -43.457 C 46.0938 -45.8984 48.0957 -48.0469 50.6348 -48.0469 L 121.338 -48.0469 C 123.877 -48.0469 125.928 -45.9473 125.928 -43.457 C 125.928 -40.918 123.877 -38.7695 121.338 -38.7695 Z M 50.6348 -16.2109 C 48.1445 -16.2109 46.0938 -18.4082 46.0938 -20.8984 C 46.0938 -23.4375 48.0957 -25.5371 50.6348 -25.5371 L 96.875 -25.5371 C 99.4141 -25.5371 101.465 -23.4863 101.465 -20.8984 C 101.465 -18.4082 99.4141 -16.2109 96.875 -16.2109 Z"/>
  </g>
  <g id="Semibold-L" transform="matrix(1 0 0 1 1957.7 1556)">
   <path d="M 53.0762 35.1074 C 55.6152 35.1074 57.5195 33.9355 60.4492 31.25 L 83.8379 10.4004 L 126.025 10.4492 C 144.385 10.498 155.078 -0.439453 155.078 -18.6035 L 155.078 -68.6523 C 155.078 -86.8164 144.385 -97.7539 126.025 -97.7539 L 45.166 -97.7539 C 26.7578 -97.7539 16.0645 -86.8652 16.0645 -68.6523 L 16.0645 -18.6035 C 16.0645 -0.390625 27.1484 10.4492 44.5801 10.4004 L 47.3633 10.4004 L 47.3633 28.6133 C 47.3633 32.5684 49.5117 35.1074 53.0762 35.1074 Z M 50.0977 -61.377 C 47.8516 -61.377 45.9473 -63.3301 45.9473 -65.6738 C 45.9473 -67.9199 47.8027 -69.8242 50.0977 -69.8242 L 120.996 -69.8242 C 123.34 -69.8242 125.195 -67.9199 125.195 -65.6738 C 125.195 -63.3301 123.34 -61.377 120.996 -61.377 Z M 50.0977 -38.8672 C 47.8516 -38.8672 45.9473 -40.7715 45.9473 -43.1152 C 45.9473 -45.3613 47.8027 -47.3145 50.0977 -47.3145 L 120.996 -47.3145 C 123.34 -47.3145 125.195 -45.4102 125.195 -43.1152 C 125.195 -40.7715 123.34 -38.8672 120.996 -38.8672 Z M 50.0977 -16.3086 C 47.8516 -16.3086 45.9473 -18.2617 45.9473 -20.5566 C 45.9473 -22.9004 47.8027 -24.7559 50.0977 -24.7559 L 96.4844 -24.7559 C 98.7793 -24.7559 100.684 -22.9004 100.684 -20.5566 C 100.684 -18.2617 98.7793 -16.3086 96.4844 -16.3086 Z"/>
  </g>
  <g id="Medium-L" transform="matrix(1 0 0 1 1661.3 1556)">
   <path d="M 52.6855 34.3262 C 55.0293 34.3262 56.7871 33.1543 59.5703 30.6152 L 82.7148 9.91211 L 126.025 9.96094 C 144.092 10.0098 154.443 -0.585938 154.443 -18.457 L 154.443 -68.3594 C 154.443 -86.2305 144.092 -96.7773 126.025 -96.7773 L 44.4824 -96.7773 C 26.3672 -96.7773 16.0645 -86.2793 16.0645 -68.3594 L 16.0645 -18.457 C 16.0645 -0.537109 26.6113 9.96094 44.1406 9.91211 L 47.2656 9.91211 L 47.2656 28.1738 C 47.2656 31.8848 49.3164 34.3262 52.6855 34.3262 Z M 49.7559 -61.4746 C 47.6074 -61.4746 45.8496 -63.2324 45.8496 -65.4785 C 45.8496 -67.5293 47.5586 -69.2871 49.7559 -69.2871 L 120.752 -69.2871 C 122.9 -69.2871 124.658 -67.5293 124.658 -65.4785 C 124.658 -63.2324 122.9 -61.4746 120.752 -61.4746 Z M 49.7559 -38.916 C 47.6074 -38.916 45.8496 -40.6738 45.8496 -42.8711 C 45.8496 -44.9707 47.5586 -46.7773 49.7559 -46.7773 L 120.752 -46.7773 C 122.9 -46.7773 124.658 -44.9707 124.658 -42.8711 C 124.658 -40.6738 122.9 -38.916 120.752 -38.916 Z M 49.7559 -16.3086 C 47.6074 -16.3086 45.8496 -18.1152 45.8496 -20.2637 C 45.8496 -22.5098 47.5586 -24.2188 49.7559 -24.2188 L 96.1914 -24.2188 C 98.291 -24.2188 100.049 -22.5098 100.049 -20.2637 C 100.049 -18.1152 98.291 -16.3086 96.1914 -16.3086 Z"/>
  </g>
  <g id="Regular-L" transform="matrix(1 0 0 1 1365.01 1556)">
   <path d="M 52.1484 33.252 C 54.2969 33.252 55.9082 32.1289 58.3984 29.834 L 81.2012 9.27734 L 126.074 9.32617 C 143.75 9.375 153.613 -0.78125 153.613 -18.1641 L 153.613 -67.9688 C 153.613 -85.4004 143.75 -95.5078 126.074 -95.5078 L 43.6035 -95.5078 C 25.8789 -95.5078 16.0645 -85.4492 16.0645 -67.9688 L 16.0645 -18.1641 C 16.0645 -0.683594 25.8789 9.32617 43.6035 9.27734 L 47.2168 9.27734 L 47.2168 27.5879 C 47.2168 31.0059 49.0234 33.252 52.1484 33.252 Z M 49.2188 -61.5723 C 47.2656 -61.5723 45.7031 -63.1348 45.7031 -65.1367 C 45.7031 -66.9922 47.2656 -68.6035 49.2188 -68.6035 L 120.41 -68.6035 C 122.363 -68.6035 123.975 -66.9922 123.975 -65.1367 C 123.975 -63.1348 122.363 -61.5723 120.41 -61.5723 Z M 49.2188 -39.0137 C 47.2656 -39.0137 45.7031 -40.5762 45.7031 -42.5781 C 45.7031 -44.4824 47.2656 -46.0449 49.2188 -46.0449 L 120.41 -46.0449 C 122.363 -46.0449 123.975 -44.4824 123.975 -42.5781 C 123.975 -40.5762 122.363 -39.0137 120.41 -39.0137 Z M 49.2188 -16.3574 C 47.2656 -16.3574 45.7031 -17.9688 45.7031 -19.9219 C 45.7031 -21.9727 47.2656 -23.4863 49.2188 -23.4863 L 95.8008 -23.4863 C 97.7051 -23.4863 99.2676 -21.9727 99.2676 -19.9219 C 99.2676 -17.9688 97.7051 -16.3574 95.8008 -16.3574 Z"/>
  </g>
  <g id="Light-L" transform="matrix(1 0 0 1 1069.2 1556)">
   <path d="M 50.293 31.7871 C 52.0508 31.7871 53.3691 30.8105 55.2734 29.1016 L 78.125 8.93555 L 126.074 8.98438 C 142.334 9.0332 151.807 -0.683594 151.807 -16.6992 L 151.807 -68.6035 C 151.807 -84.6191 142.334 -94.2871 126.074 -94.2871 L 41.7969 -94.2871 C 25.5371 -94.2871 16.0645 -84.7168 16.0645 -68.6035 L 16.0645 -16.6992 C 16.0645 -0.585938 25.5371 8.98438 41.7969 8.93555 L 46.2891 8.93555 L 46.2891 27.2461 C 46.2891 29.9805 47.8516 31.7871 50.293 31.7871 Z M 47.8516 -62.207 C 46.2891 -62.207 44.9707 -63.4766 44.9707 -65.1367 C 44.9707 -66.6504 46.2891 -67.9688 47.8516 -67.9688 L 119.971 -67.9688 C 121.582 -67.9688 122.852 -66.6504 122.852 -65.1367 C 122.852 -63.4766 121.582 -62.207 119.971 -62.207 Z M 47.8516 -39.6484 C 46.2891 -39.6484 44.9707 -40.918 44.9707 -42.5293 C 44.9707 -44.0918 46.2891 -45.4102 47.8516 -45.4102 L 119.971 -45.4102 C 121.582 -45.4102 122.852 -44.0918 122.852 -42.5293 C 122.852 -40.918 121.582 -39.6484 119.971 -39.6484 Z M 47.8516 -16.9922 C 46.2891 -16.9922 44.9707 -18.3105 44.9707 -19.873 C 44.9707 -21.5332 46.2891 -22.7539 47.8516 -22.7539 L 95.3125 -22.7539 C 96.875 -22.7539 98.1934 -21.5332 98.1934 -19.873 C 98.1934 -18.3105 96.875 -16.9922 95.3125 -16.9922 Z"/>
  </g>
  <g id="Thin-L" transform="matrix(1 0 0 1 773.683 1556)">
   <path d="M 47.8516 29.834 C 49.0234 29.834 50 29.1016 51.123 28.1738 L 74.0234 8.49609 L 126.074 8.54492 C 140.43 8.54492 149.414 -0.634766 149.414 -14.7949 L 149.414 -69.3848 C 149.414 -83.5449 140.43 -92.7246 126.074 -92.7246 L 39.3555 -92.7246 C 25.0488 -92.7246 16.0645 -83.6914 16.0645 -69.3848 L 16.0645 -14.7949 C 16.0645 -0.488281 25.0488 8.54492 39.3555 8.49609 L 45.0684 8.49609 L 45.0684 26.709 C 45.0684 28.6133 46.2402 29.834 47.8516 29.834 Z M 46.0449 -63.0859 C 44.9707 -63.0859 44.043 -63.916 44.043 -65.0879 C 44.043 -66.2109 44.9707 -67.0898 46.0449 -67.0898 L 119.385 -67.0898 C 120.508 -67.0898 121.387 -66.2109 121.387 -65.0879 C 121.387 -63.916 120.508 -63.0859 119.385 -63.0859 Z M 46.0449 -40.5273 C 44.9707 -40.5273 44.043 -41.4062 44.043 -42.5293 C 44.043 -43.6035 44.9707 -44.5312 46.0449 -44.5312 L 119.385 -44.5312 C 120.508 -44.5312 121.387 -43.6035 121.387 -42.5293 C 121.387 -41.4062 120.508 -40.5273 119.385 -40.5273 Z M 46.0449 -17.8223 C 44.9707 -17.8223 44.043 -18.75 44.043 -19.8242 C 44.043 -20.9961 44.9707 -21.8262 46.0449 -21.8262 L 94.7266 -21.8262 C 95.8008 -21.8262 96.7285 -20.9961 96.7285 -19.8242 C 96.7285 -18.75 95.8008 -17.8223 94.7266 -17.8223 Z"/>
  </g>
  <g id="Ultralight-L" transform="matrix(1 0 0 1 477.607 1556)">
   <path d="M 46.582 28.8086 C 47.5098 28.8086 48.291 28.2227 48.9746 27.7344 L 71.9238 8.30078 L 126.074 8.30078 C 139.453 8.30078 148.145 -0.585938 148.145 -13.8184 L 148.145 -69.8242 C 148.145 -83.0078 139.453 -91.8945 126.074 -91.8945 L 38.1348 -91.8945 C 24.8047 -91.8945 16.0645 -83.2031 16.0645 -69.8242 L 16.0645 -13.8184 C 16.0645 -0.439453 24.8047 8.30078 38.1348 8.30078 L 44.4824 8.30078 L 44.4824 26.4648 C 44.4824 27.9297 45.4102 28.8086 46.582 28.8086 Z M 45.1172 -63.5742 C 44.2871 -63.5742 43.6035 -64.1602 43.6035 -65.0879 C 43.6035 -65.9668 44.2871 -66.6504 45.1172 -66.6504 L 119.092 -66.6504 C 119.922 -66.6504 120.654 -65.9668 120.654 -65.0879 C 120.654 -64.1602 119.922 -63.5742 119.092 -63.5742 Z M 45.1172 -40.9668 C 44.2871 -40.9668 43.6035 -41.6504 43.6035 -42.4805 C 43.6035 -43.3594 44.2871 -44.043 45.1172 -44.043 L 119.092 -44.043 C 119.922 -44.043 120.654 -43.3594 120.654 -42.4805 C 120.654 -41.6504 119.922 -40.9668 119.092 -40.9668 Z M 45.1172 -18.2617 C 44.2871 -18.2617 43.6035 -18.9941 43.6035 -19.8242 C 43.6035 -20.752 44.2871 -21.3867 45.1172 -21.3867 L 94.3848 -21.3867 C 95.2637 -21.3867 95.9473 -20.752 95.9473 -19.8242 C 95.9473 -18.9941 95.2637 -18.2617 94.3848 -18.2617 Z"/>
  </g>
  <g id="Black-M" transform="matrix(1 0 0 1 2865.58 1126)">
   <path d="M 42.7246 23.3887 C 45.3125 23.3887 47.5586 22.5586 50.6836 19.7754 L 70.2637 2.97852 L 97.4609 2.97852 C 112.793 2.97852 123.193 -7.42188 123.193 -22.7539 L 123.193 -63.2812 C 123.193 -78.6133 112.793 -89.0137 97.4609 -89.0137 L 38.1836 -89.0137 C 22.8516 -89.0137 12.4512 -78.6133 12.4512 -63.2812 L 12.4512 -22.7539 C 12.4512 -7.42188 24.1211 2.97852 36.2793 2.97852 L 36.6211 2.97852 L 36.6211 16.7969 C 36.6211 20.8984 38.9648 23.3887 42.7246 23.3887 Z M 40.4297 -55.4199 C 37.9883 -55.4199 35.9375 -57.7148 35.9375 -60.2539 C 35.9375 -62.7441 37.9395 -64.9902 40.4297 -64.9902 L 95.0684 -64.9902 C 97.7051 -64.9902 99.7559 -62.793 99.7559 -60.2539 C 99.7559 -57.7148 97.7051 -55.4199 95.0684 -55.4199 Z M 40.4297 -38.0371 C 37.9883 -38.0371 35.9375 -40.332 35.9375 -42.8711 C 35.9375 -45.3613 37.9395 -47.6074 40.4297 -47.6074 L 95.0684 -47.6074 C 97.7051 -47.6074 99.7559 -45.4102 99.7559 -42.8711 C 99.7559 -40.332 97.7051 -38.0371 95.0684 -38.0371 Z M 40.4297 -20.6543 C 37.9883 -20.6543 35.9375 -22.9492 35.9375 -25.4395 C 35.9375 -27.9785 37.9395 -30.2246 40.4297 -30.2246 L 76.3672 -30.2246 C 79.0039 -30.2246 81.0547 -28.0273 81.0547 -25.4395 C 81.0547 -22.9492 79.0039 -20.6543 76.3672 -20.6543 Z"/>
  </g>
  <g id="Heavy-M" transform="matrix(1 0 0 1 2569.23 1126)">
   <path d="M 42.4316 22.3145 C 44.873 22.3145 46.875 21.3867 49.8047 18.7988 L 68.9453 2.14844 L 97.5098 2.14844 C 112.646 2.14844 122.461 -7.71484 122.461 -22.8027 L 122.461 -62.5488 C 122.461 -77.6367 112.646 -87.5 97.5098 -87.5 L 37.4023 -87.5 C 22.2656 -87.5 12.4512 -77.6367 12.4512 -62.5488 L 12.4512 -22.8027 C 12.4512 -7.71484 23.2422 2.14844 35.9375 2.14844 L 36.7188 2.14844 L 36.7188 16.0645 C 36.7188 19.9219 38.916 22.3145 42.4316 22.3145 Z M 40.0879 -55.3711 C 37.8418 -55.3711 35.8887 -57.4707 35.8887 -59.8145 C 35.8887 -62.1094 37.793 -64.1602 40.0879 -64.1602 L 94.7266 -64.1602 C 97.1191 -64.1602 99.0234 -62.1582 99.0234 -59.8145 C 99.0234 -57.4707 97.1191 -55.3711 94.7266 -55.3711 Z M 40.0879 -37.9883 C 37.8418 -37.9883 35.8887 -40.0391 35.8887 -42.3828 C 35.8887 -44.7266 37.793 -46.7773 40.0879 -46.7773 L 94.7266 -46.7773 C 97.1191 -46.7773 99.0234 -44.7754 99.0234 -42.3828 C 99.0234 -40.0391 97.1191 -37.9883 94.7266 -37.9883 Z M 40.0879 -20.5566 C 37.8418 -20.5566 35.8887 -22.6562 35.8887 -24.9512 C 35.8887 -27.2949 37.793 -29.3457 40.0879 -29.3457 L 75.9277 -29.3457 C 78.3203 -29.3457 80.2246 -27.3438 80.2246 -24.9512 C 80.2246 -22.6562 78.3203 -20.5566 75.9277 -20.5566 Z"/>
  </g>
  <g id="Bold-M" transform="matrix(1 0 0 1 2272.94 1126)">
   <path d="M 42.0898 21.0449 C 44.3359 21.0449 46.1426 20.1172 48.877 17.6758 L 67.4805 1.2207 L 97.5586 1.2207 C 112.5 1.26953 121.631 -8.00781 121.631 -22.8027 L 121.631 -61.7676 C 121.631 -76.5625 112.5 -85.791 97.5586 -85.791 L 36.4746 -85.791 C 21.582 -85.791 12.4512 -76.6113 12.4512 -61.7676 L 12.4512 -22.8027 C 12.4512 -7.95898 22.2168 1.2207 35.5469 1.2207 L 36.8652 1.2207 L 36.8652 15.2344 C 36.8652 18.7988 38.8184 21.0449 42.0898 21.0449 Z M 39.6973 -55.3223 C 37.5977 -55.3223 35.8887 -57.1777 35.8887 -59.3262 C 35.8887 -61.377 37.5977 -63.2324 39.6973 -63.2324 L 94.3359 -63.2324 C 96.4844 -63.2324 98.2422 -61.4258 98.2422 -59.3262 C 98.2422 -57.1777 96.4844 -55.3223 94.3359 -55.3223 Z M 39.6973 -37.8906 C 37.5977 -37.8906 35.8887 -39.7461 35.8887 -41.8945 C 35.8887 -43.9941 37.5977 -45.8008 39.6973 -45.8008 L 94.3359 -45.8008 C 96.4844 -45.8008 98.2422 -43.9941 98.2422 -41.8945 C 98.2422 -39.7461 96.4844 -37.8906 94.3359 -37.8906 Z M 39.6973 -20.459 C 37.5977 -20.459 35.8887 -22.3145 35.8887 -24.4141 C 35.8887 -26.5625 37.5977 -28.3691 39.6973 -28.3691 L 75.4395 -28.3691 C 77.5879 -28.3691 79.3457 -26.6113 79.3457 -24.4141 C 79.3457 -22.3145 77.5879 -20.459 75.4395 -20.459 Z"/>
  </g>
  <g id="Semibold-M" transform="matrix(1 0 0 1 1976.52 1126)">
   <path d="M 41.8457 20.2148 C 43.9941 20.2148 45.6543 19.2383 48.1934 16.9434 L 66.4551 0.585938 L 97.6074 0.585938 C 112.402 0.634766 121.045 -8.20312 121.045 -22.8027 L 121.045 -61.2305 C 121.045 -75.8301 112.402 -84.668 97.6074 -84.668 L 35.8887 -84.668 C 21.0938 -84.668 12.4512 -75.8789 12.4512 -61.2305 L 12.4512 -22.8027 C 12.4512 -8.1543 21.4844 0.585938 35.2539 0.585938 L 36.9141 0.585938 L 36.9141 14.6973 C 36.9141 18.0664 38.7695 20.2148 41.8457 20.2148 Z M 39.4043 -55.3223 C 37.4512 -55.3223 35.8398 -56.9824 35.8398 -58.9844 C 35.8398 -60.8887 37.4512 -62.5977 39.4043 -62.5977 L 94.043 -62.5977 C 96.0449 -62.5977 97.7051 -60.9375 97.7051 -58.9844 C 97.7051 -56.9824 96.0449 -55.3223 94.043 -55.3223 Z M 39.4043 -37.8418 C 37.4512 -37.8418 35.8398 -39.5508 35.8398 -41.5527 C 35.8398 -43.457 37.4512 -45.166 39.4043 -45.166 L 94.043 -45.166 C 96.0449 -45.166 97.7051 -43.5059 97.7051 -41.5527 C 97.7051 -39.5508 96.0449 -37.8418 94.043 -37.8418 Z M 39.4043 -20.3613 C 37.4512 -20.3613 35.8398 -22.0703 35.8398 -24.0723 C 35.8398 -26.0742 37.4512 -27.6855 39.4043 -27.6855 L 75.0977 -27.6855 C 77.0508 -27.6855 78.7109 -26.0742 78.7109 -24.0723 C 78.7109 -22.0703 77.0508 -20.3613 75.0977 -20.3613 Z"/>
  </g>
  <g id="Medium-M" transform="matrix(1 0 0 1 1680.03 1126)">
   <path d="M 41.6992 19.5312 C 43.75 19.5312 45.2637 18.5547 47.7051 16.3574 L 65.7227 0.0976562 L 97.6562 0.146484 C 112.354 0.146484 120.605 -8.34961 120.605 -22.8516 L 120.605 -60.791 C 120.605 -75.293 112.354 -83.7891 97.6562 -83.7891 L 35.4004 -83.7891 C 20.752 -83.7891 12.4512 -75.293 12.4512 -60.791 L 12.4512 -22.8516 C 12.4512 -8.30078 20.9961 0.146484 35.0586 0.0976562 L 37.0117 0.0976562 L 37.0117 14.2578 C 37.0117 17.4805 38.7207 19.5312 41.6992 19.5312 Z M 39.209 -55.2734 C 37.3535 -55.2734 35.8398 -56.8359 35.8398 -58.7402 C 35.8398 -60.5469 37.3535 -62.1094 39.209 -62.1094 L 93.8477 -62.1094 C 95.752 -62.1094 97.2656 -60.5469 97.2656 -58.7402 C 97.2656 -56.8359 95.752 -55.2734 93.8477 -55.2734 Z M 39.209 -37.8418 C 37.3535 -37.8418 35.8398 -39.3555 35.8398 -41.2598 C 35.8398 -43.0664 37.3535 -44.6289 39.209 -44.6289 L 93.8477 -44.6289 C 95.752 -44.6289 97.2656 -43.1152 97.2656 -41.2598 C 97.2656 -39.3555 95.752 -37.8418 93.8477 -37.8418 Z M 39.209 -20.3125 C 37.3535 -20.3125 35.8398 -21.9238 35.8398 -23.7793 C 35.8398 -25.6836 37.3535 -27.1973 39.209 -27.1973 L 74.8535 -27.1973 C 76.6602 -27.1973 78.2227 -25.6836 78.2227 -23.7793 C 78.2227 -21.9238 76.6602 -20.3125 74.8535 -20.3125 Z"/>
  </g>
  <g id="Regular-M" transform="matrix(1 0 0 1 1383.58 1126)">
   <path d="M 41.4551 18.7012 C 43.3594 18.7012 44.7754 17.7246 47.0703 15.5762 L 64.6973 -0.537109 L 97.7051 -0.488281 C 112.256 -0.439453 120.068 -8.54492 120.068 -22.8516 L 120.068 -60.2539 C 120.068 -74.5605 112.256 -82.6172 97.7051 -82.6172 L 34.8145 -82.6172 C 20.2637 -82.6172 12.4512 -74.6094 12.4512 -60.2539 L 12.4512 -22.8516 C 12.4512 -8.49609 20.2637 -0.488281 34.8145 -0.537109 L 37.1094 -0.537109 L 37.1094 13.6719 C 37.1094 16.6992 38.6719 18.7012 41.4551 18.7012 Z M 38.916 -55.2734 C 37.207 -55.2734 35.791 -56.6406 35.791 -58.4473 C 35.791 -60.0586 37.207 -61.4746 38.916 -61.4746 L 93.6035 -61.4746 C 95.3125 -61.4746 96.7285 -60.0586 96.7285 -58.4473 C 96.7285 -56.6406 95.3125 -55.2734 93.6035 -55.2734 Z M 38.916 -37.793 C 37.207 -37.793 35.791 -39.1602 35.791 -40.918 C 35.791 -42.5781 37.207 -43.9941 38.916 -43.9941 L 93.6035 -43.9941 C 95.3125 -43.9941 96.7285 -42.5781 96.7285 -40.918 C 96.7285 -39.1602 95.3125 -37.793 93.6035 -37.793 Z M 38.916 -20.2637 C 37.207 -20.2637 35.791 -21.6797 35.791 -23.3887 C 35.791 -25.1953 37.207 -26.5137 38.916 -26.5137 L 74.5117 -26.5137 C 76.1719 -26.5137 77.5879 -25.1953 77.5879 -23.3887 C 77.5879 -21.6797 76.1719 -20.2637 74.5117 -20.2637 Z"/>
  </g>
  <g id="Light-M" transform="matrix(1 0 0 1 1087.68 1126)">
   <path d="M 39.7949 17.3828 C 41.3574 17.3828 42.4805 16.5527 44.2383 14.9414 L 61.9141 -0.830078 L 97.7051 -0.830078 C 110.938 -0.78125 118.457 -8.49609 118.457 -21.5332 L 118.457 -60.791 C 118.457 -73.877 110.938 -81.543 97.7051 -81.543 L 33.2031 -81.543 C 19.9707 -81.543 12.4512 -73.9258 12.4512 -60.791 L 12.4512 -21.5332 C 12.4512 -8.44727 19.9707 -0.830078 33.2031 -0.830078 L 36.2793 -0.830078 L 36.2793 13.3301 C 36.2793 15.7715 37.5977 17.3828 39.7949 17.3828 Z M 37.6953 -55.8594 C 36.3281 -55.8594 35.1562 -56.9824 35.1562 -58.3984 C 35.1562 -59.7656 36.3281 -60.8887 37.6953 -60.8887 L 93.1641 -60.8887 C 94.5801 -60.8887 95.7031 -59.7656 95.7031 -58.3984 C 95.7031 -56.9824 94.5801 -55.8594 93.1641 -55.8594 Z M 37.6953 -38.3789 C 36.3281 -38.3789 35.1562 -39.4531 35.1562 -40.918 C 35.1562 -42.2852 36.3281 -43.4082 37.6953 -43.4082 L 93.1641 -43.4082 C 94.5801 -43.4082 95.7031 -42.2852 95.7031 -40.918 C 95.7031 -39.4531 94.5801 -38.3789 93.1641 -38.3789 Z M 37.6953 -20.8496 C 36.3281 -20.8496 35.1562 -21.9727 35.1562 -23.3398 C 35.1562 -24.8047 36.3281 -25.8789 37.6953 -25.8789 L 74.0723 -25.8789 C 75.4395 -25.8789 76.5625 -24.8047 76.5625 -23.3398 C 76.5625 -21.9727 75.4395 -20.8496 74.0723 -20.8496 Z"/>
  </g>
  <g id="Thin-M" transform="matrix(1 0 0 1 792.042 1126)">
   <path d="M 37.5977 15.625 C 38.6719 15.625 39.502 14.9902 40.5273 14.1113 L 58.252 -1.2207 L 97.7051 -1.2207 C 109.229 -1.2207 116.309 -8.44727 116.309 -19.8242 L 116.309 -61.5234 C 116.309 -72.9004 109.229 -80.127 97.7051 -80.127 L 31.0547 -80.127 C 19.5312 -80.127 12.4512 -72.998 12.4512 -61.5234 L 12.4512 -19.8242 C 12.4512 -8.34961 19.5312 -1.2207 31.0547 -1.2207 L 35.2051 -1.2207 L 35.2051 12.8906 C 35.2051 14.5508 36.1816 15.625 37.5977 15.625 Z M 36.084 -56.6406 C 35.1562 -56.6406 34.3262 -57.373 34.3262 -58.3984 C 34.3262 -59.3262 35.1562 -60.1074 36.084 -60.1074 L 92.6758 -60.1074 C 93.6035 -60.1074 94.3848 -59.3262 94.3848 -58.3984 C 94.3848 -57.373 93.6035 -56.6406 92.6758 -56.6406 Z M 36.084 -39.1602 C 35.1562 -39.1602 34.3262 -39.8926 34.3262 -40.8691 C 34.3262 -41.8457 35.1562 -42.627 36.084 -42.627 L 92.6758 -42.627 C 93.6035 -42.627 94.3848 -41.8457 94.3848 -40.8691 C 94.3848 -39.8926 93.6035 -39.1602 92.6758 -39.1602 Z M 36.084 -21.582 C 35.1562 -21.582 34.3262 -22.3633 34.3262 -23.291 C 34.3262 -24.3164 35.1562 -25.0488 36.084 -25.0488 L 73.5352 -25.0488 C 74.4629 -25.0488 75.293 -24.3164 75.293 -23.291 C 75.293 -22.3633 74.4629 -21.582 73.5352 -21.582 Z"/>
  </g>
  <g id="Ultralight-M" transform="matrix(1 0 0 1 495.893 1126)">
   <path d="M 36.4746 14.6973 C 37.2559 14.6973 37.9395 14.209 38.5742 13.6719 L 56.3477 -1.41602 L 97.7051 -1.41602 C 108.35 -1.41602 115.186 -8.39844 115.186 -18.9453 L 115.186 -61.9141 C 115.186 -72.4121 108.35 -79.3945 97.7051 -79.3945 L 29.9316 -79.3945 C 19.2871 -79.3945 12.4512 -72.5586 12.4512 -61.9141 L 12.4512 -18.9453 C 12.4512 -8.25195 19.2871 -1.41602 29.9316 -1.41602 L 34.668 -1.41602 L 34.668 12.6465 C 34.668 13.916 35.4492 14.6973 36.4746 14.6973 Z M 35.2539 -57.0312 C 34.5215 -57.0312 33.9355 -57.5684 33.9355 -58.3984 C 33.9355 -59.1309 34.5215 -59.7168 35.2539 -59.7168 L 92.3828 -59.7168 C 93.1152 -59.7168 93.75 -59.1309 93.75 -58.3984 C 93.75 -57.5684 93.1152 -57.0312 92.3828 -57.0312 Z M 35.2539 -39.5508 C 34.5215 -39.5508 33.9355 -40.1367 33.9355 -40.8691 C 33.9355 -41.6016 34.5215 -42.1875 35.2539 -42.1875 L 92.3828 -42.1875 C 93.1152 -42.1875 93.75 -41.6016 93.75 -40.8691 C 93.75 -40.1367 93.1152 -39.5508 92.3828 -39.5508 Z M 35.2539 -21.9727 C 34.5215 -21.9727 33.9355 -22.5586 33.9355 -23.291 C 33.9355 -24.0723 34.5215 -24.6094 35.2539 -24.6094 L 73.2422 -24.6094 C 73.9746 -24.6094 74.6094 -24.0723 74.6094 -23.291 C 74.6094 -22.5586 73.9746 -21.9727 73.2422 -21.9727 Z"/>
  </g>
  <g id="Black-S" transform="matrix(1 0 0 1 2880.28 696)">
   <path d="M 33.4961 10.6445 C 35.498 10.6445 37.2559 9.96094 39.6973 7.8125 L 54.9805 -5.37109 L 76.3672 -5.37109 C 88.3789 -5.37109 96.4844 -13.4766 96.4844 -25.4883 L 96.4844 -57.1289 C 96.4844 -69.1406 88.3789 -77.2461 76.3672 -77.2461 L 29.8828 -77.2461 C 17.8711 -77.2461 9.76562 -69.1406 9.76562 -57.1289 L 9.76562 -25.4883 C 9.76562 -13.4766 18.8477 -5.37109 28.418 -5.37109 L 28.7109 -5.37109 L 28.7109 5.46875 C 28.7109 8.69141 30.5664 10.6445 33.4961 10.6445 Z M 31.6895 -51.0254 C 29.7852 -51.0254 28.1738 -52.832 28.1738 -54.7852 C 28.1738 -56.7383 29.7363 -58.4961 31.6895 -58.4961 L 74.4629 -58.4961 C 76.5137 -58.4961 78.125 -56.7871 78.125 -54.7852 C 78.125 -52.832 76.5137 -51.0254 74.4629 -51.0254 Z M 31.6895 -37.4023 C 29.7852 -37.4023 28.1738 -39.209 28.1738 -41.1621 C 28.1738 -43.1152 29.7363 -44.873 31.6895 -44.873 L 74.4629 -44.873 C 76.5137 -44.873 78.125 -43.1641 78.125 -41.1621 C 78.125 -39.209 76.5137 -37.4023 74.4629 -37.4023 Z M 31.6895 -23.7793 C 29.7852 -23.7793 28.1738 -25.5859 28.1738 -27.5391 C 28.1738 -29.4922 29.7363 -31.25 31.6895 -31.25 L 59.8145 -31.25 C 61.8652 -31.25 63.4766 -29.541 63.4766 -27.5391 C 63.4766 -25.5859 61.8652 -23.7793 59.8145 -23.7793 Z"/>
  </g>
  <g id="Heavy-S" transform="matrix(1 0 0 1 2583.76 696)">
   <path d="M 33.4473 9.96094 C 35.4004 9.96094 37.0117 9.22852 39.3555 7.12891 L 54.2969 -5.95703 L 76.416 -5.95703 C 88.4277 -5.95703 96.0938 -13.6719 96.0938 -25.6348 L 96.0938 -56.543 C 96.0938 -68.5059 88.4277 -76.2207 76.416 -76.2207 L 29.4434 -76.2207 C 17.4316 -76.2207 9.76562 -68.5059 9.76562 -56.543 L 9.76562 -25.6348 C 9.76562 -13.6719 18.2129 -5.95703 28.3203 -5.95703 L 28.9062 -5.95703 L 28.9062 4.93164 C 28.9062 8.05664 30.6152 9.96094 33.4473 9.96094 Z M 31.543 -50.9277 C 29.7363 -50.9277 28.2227 -52.5879 28.2227 -54.4434 C 28.2227 -56.2988 29.6875 -57.9102 31.543 -57.9102 L 74.2188 -57.9102 C 76.1719 -57.9102 77.6855 -56.3477 77.6855 -54.4434 C 77.6855 -52.5879 76.1719 -50.9277 74.2188 -50.9277 Z M 31.543 -37.3047 C 29.7363 -37.3047 28.2227 -38.9648 28.2227 -40.8203 C 28.2227 -42.6758 29.6875 -44.2871 31.543 -44.2871 L 74.2188 -44.2871 C 76.1719 -44.2871 77.6855 -42.6758 77.6855 -40.8203 C 77.6855 -38.9648 76.1719 -37.3047 74.2188 -37.3047 Z M 31.543 -23.6328 C 29.7363 -23.6328 28.2227 -25.3418 28.2227 -27.1484 C 28.2227 -29.0527 29.6875 -30.6641 31.543 -30.6641 L 59.5215 -30.6641 C 61.4258 -30.6641 62.9395 -29.0527 62.9395 -27.1484 C 62.9395 -25.3418 61.4258 -23.6328 59.5215 -23.6328 Z"/>
  </g>
  <g id="Bold-S" transform="matrix(1 0 0 1 2287.27 696)">
   <path d="M 33.3984 9.13086 C 35.2539 9.13086 36.7188 8.39844 38.9648 6.34766 L 53.5156 -6.64062 L 76.4648 -6.64062 C 88.4766 -6.5918 95.6543 -13.916 95.6543 -25.8301 L 95.6543 -55.8594 C 95.6543 -67.7734 88.4766 -75.0488 76.4648 -75.0488 L 28.9551 -75.0488 C 16.9434 -75.0488 9.76562 -67.7734 9.76562 -55.8594 L 9.76562 -25.8301 C 9.76562 -13.916 17.4316 -6.64062 28.2227 -6.64062 L 29.1016 -6.64062 L 29.1016 4.3457 C 29.1016 7.32422 30.7129 9.13086 33.3984 9.13086 Z M 31.3965 -50.8301 C 29.6875 -50.8301 28.2715 -52.3438 28.2715 -54.1016 C 28.2715 -55.8105 29.6875 -57.2754 31.3965 -57.2754 L 73.9746 -57.2754 C 75.7812 -57.2754 77.1973 -55.8105 77.1973 -54.1016 C 77.1973 -52.3438 75.7812 -50.8301 73.9746 -50.8301 Z M 31.3965 -37.1582 C 29.6875 -37.1582 28.2715 -38.6719 28.2715 -40.4297 C 28.2715 -42.1387 29.6875 -43.6523 31.3965 -43.6523 L 73.9746 -43.6523 C 75.7812 -43.6523 77.1973 -42.1387 77.1973 -40.4297 C 77.1973 -38.6719 75.7812 -37.1582 73.9746 -37.1582 Z M 31.3965 -23.4863 C 29.6875 -23.4863 28.2715 -25 28.2715 -26.7578 C 28.2715 -28.5156 29.6875 -29.9805 31.3965 -29.9805 L 59.1797 -29.9805 C 60.9375 -29.9805 62.3535 -28.5156 62.3535 -26.7578 C 62.3535 -25 60.9375 -23.4863 59.1797 -23.4863 Z"/>
  </g>
  <g id="Semibold-S" transform="matrix(1 0 0 1 1990.7 696)">
   <path d="M 33.3496 8.59375 C 35.1562 8.59375 36.5234 7.8125 38.7207 5.81055 L 52.9785 -7.08008 L 76.5137 -7.08008 C 88.5254 -7.03125 95.3613 -14.0625 95.3613 -25.9277 L 95.3613 -55.3711 C 95.3613 -67.2852 88.5254 -74.2676 76.5137 -74.2676 L 28.6621 -74.2676 C 16.6504 -74.2676 9.76562 -67.2852 9.76562 -55.3711 L 9.76562 -25.9277 C 9.76562 -14.0625 16.9434 -7.08008 28.1738 -7.08008 L 29.248 -7.08008 L 29.248 3.95508 C 29.248 6.78711 30.7617 8.59375 33.3496 8.59375 Z M 31.2988 -50.7324 C 29.6387 -50.7324 28.3203 -52.1484 28.3203 -53.8574 C 28.3203 -55.4199 29.6387 -56.8359 31.2988 -56.8359 L 73.8281 -56.8359 C 75.4883 -56.8359 76.8555 -55.4688 76.8555 -53.8574 C 76.8555 -52.1484 75.4883 -50.7324 73.8281 -50.7324 Z M 31.2988 -37.1094 C 29.6387 -37.1094 28.3203 -38.4766 28.3203 -40.1855 C 28.3203 -41.7969 29.6387 -43.1641 31.2988 -43.1641 L 73.8281 -43.1641 C 75.4883 -43.1641 76.8555 -41.7969 76.8555 -40.1855 C 76.8555 -38.4766 75.4883 -37.1094 73.8281 -37.1094 Z M 31.2988 -23.3887 C 29.6387 -23.3887 28.3203 -24.8047 28.3203 -26.4648 C 28.3203 -28.1738 29.6387 -29.541 31.2988 -29.541 L 58.9844 -29.541 C 60.6445 -29.541 61.9629 -28.1738 61.9629 -26.4648 C 61.9629 -24.8047 60.6445 -23.3887 58.9844 -23.3887 Z"/>
  </g>
  <g id="Medium-S" transform="matrix(1 0 0 1 1694.09 696)">
   <path d="M 33.3496 8.20312 C 35.0586 8.20312 36.377 7.37305 38.4766 5.41992 L 52.5879 -7.4707 L 76.5137 -7.42188 C 88.5254 -7.37305 95.166 -14.209 95.166 -26.0254 L 95.166 -55.0293 C 95.166 -66.8945 88.5254 -73.6816 76.5137 -73.6816 L 28.418 -73.6816 C 16.4062 -73.6816 9.76562 -66.8945 9.76562 -55.0293 L 9.76562 -26.0254 C 9.76562 -14.209 16.5527 -7.42188 28.125 -7.4707 L 29.3457 -7.4707 L 29.3457 3.66211 C 29.3457 6.39648 30.8105 8.20312 33.3496 8.20312 Z M 31.2012 -50.6836 C 29.6387 -50.6836 28.3203 -52.0508 28.3203 -53.6621 C 28.3203 -55.1758 29.6387 -56.4941 31.2012 -56.4941 L 73.6816 -56.4941 C 75.293 -56.4941 76.6113 -55.1758 76.6113 -53.6621 C 76.6113 -52.0508 75.293 -50.6836 73.6816 -50.6836 Z M 31.2012 -37.0117 C 29.6387 -37.0117 28.3203 -38.3301 28.3203 -39.9414 C 28.3203 -41.5039 29.6387 -42.8223 31.2012 -42.8223 L 73.6816 -42.8223 C 75.293 -42.8223 76.6113 -41.5039 76.6113 -39.9414 C 76.6113 -38.3301 75.293 -37.0117 73.6816 -37.0117 Z M 31.2012 -23.3398 C 29.6387 -23.3398 28.3203 -24.6582 28.3203 -26.2695 C 28.3203 -27.8809 29.6387 -29.1504 31.2012 -29.1504 L 58.7891 -29.1504 C 60.3516 -29.1504 61.6699 -27.8809 61.6699 -26.2695 C 61.6699 -24.6582 60.3516 -23.3398 58.7891 -23.3398 Z"/>
  </g>
  <g id="Regular-S" transform="matrix(1 0 0 1 1397.53 696)">
   <path d="M 33.3008 7.66602 C 35.0098 7.66602 36.1816 6.78711 38.2324 4.88281 L 52.0508 -7.91016 L 76.5625 -7.86133 C 88.5742 -7.8125 94.873 -14.3555 94.873 -26.1719 L 94.873 -54.5898 C 94.873 -66.4062 88.5742 -72.9004 76.5625 -72.9004 L 28.0762 -72.9004 C 16.0645 -72.9004 9.76562 -66.4062 9.76562 -54.5898 L 9.76562 -26.1719 C 9.76562 -14.3555 16.0645 -7.86133 28.0762 -7.91016 L 29.4434 -7.91016 L 29.4434 3.27148 C 29.4434 5.9082 30.8594 7.66602 33.3008 7.66602 Z M 31.1035 -50.6348 C 29.5898 -50.6348 28.3691 -51.8555 28.3691 -53.418 C 28.3691 -54.834 29.5898 -56.0547 31.1035 -56.0547 L 73.5352 -56.0547 C 75.0488 -56.0547 76.2695 -54.834 76.2695 -53.418 C 76.2695 -51.8555 75.0488 -50.6348 73.5352 -50.6348 Z M 31.1035 -36.9629 C 29.5898 -36.9629 28.3691 -38.1348 28.3691 -39.6973 C 28.3691 -41.1621 29.5898 -42.3828 31.1035 -42.3828 L 73.5352 -42.3828 C 75.0488 -42.3828 76.2695 -41.1621 76.2695 -39.6973 C 76.2695 -38.1348 75.0488 -36.9629 73.5352 -36.9629 Z M 31.1035 -23.2422 C 29.5898 -23.2422 28.3691 -24.4629 28.3691 -25.9766 C 28.3691 -27.5391 29.5898 -28.7109 31.1035 -28.7109 L 58.5938 -28.7109 C 60.0586 -28.7109 61.2793 -27.5391 61.2793 -25.9766 C 61.2793 -24.4629 60.0586 -23.2422 58.5938 -23.2422 Z"/>
  </g>
  <g id="Light-S" transform="matrix(1 0 0 1 1101.55 696)">
   <path d="M 31.8359 6.49414 C 33.2031 6.49414 34.1797 5.76172 35.7422 4.3457 L 49.6094 -8.1543 L 76.5625 -8.1543 C 87.4023 -8.10547 93.4082 -14.3066 93.4082 -25 L 93.4082 -55.0781 C 93.4082 -65.7715 87.4023 -71.9238 76.5625 -71.9238 L 26.6113 -71.9238 C 15.7715 -71.9238 9.76562 -65.8203 9.76562 -55.0781 L 9.76562 -25 C 9.76562 -14.2578 15.7715 -8.1543 26.6113 -8.1543 L 28.7598 -8.1543 L 28.7598 2.97852 C 28.7598 5.07812 29.8828 6.49414 31.8359 6.49414 Z M 30.0293 -51.1719 C 28.8086 -51.1719 27.832 -52.1484 27.832 -53.418 C 27.832 -54.541 28.8086 -55.5664 30.0293 -55.5664 L 73.1934 -55.5664 C 74.3652 -55.5664 75.3906 -54.541 75.3906 -53.418 C 75.3906 -52.1484 74.3652 -51.1719 73.1934 -51.1719 Z M 30.0293 -37.4512 C 28.8086 -37.4512 27.832 -38.4277 27.832 -39.6973 C 27.832 -40.8691 28.8086 -41.8457 30.0293 -41.8457 L 73.1934 -41.8457 C 74.3652 -41.8457 75.3906 -40.8691 75.3906 -39.6973 C 75.3906 -38.4277 74.3652 -37.4512 73.1934 -37.4512 Z M 30.0293 -23.7305 C 28.8086 -23.7305 27.832 -24.707 27.832 -25.9277 C 27.832 -27.1973 28.8086 -28.1738 30.0293 -28.1738 L 58.2031 -28.1738 C 59.375 -28.1738 60.4004 -27.1973 60.4004 -25.9277 C 60.4004 -24.707 59.375 -23.7305 58.2031 -23.7305 Z"/>
  </g>
  <g id="Thin-S" transform="matrix(1 0 0 1 805.763 696)">
   <path d="M 29.8828 4.93164 C 30.8105 4.93164 31.4941 4.44336 32.4707 3.61328 L 46.3379 -8.49609 L 76.5625 -8.49609 C 85.9375 -8.49609 91.5527 -14.2578 91.5527 -23.4863 L 91.5527 -55.7129 C 91.5527 -64.9414 85.9375 -70.6543 76.5625 -70.6543 L 24.7559 -70.6543 C 15.3809 -70.6543 9.76562 -64.9902 9.76562 -55.7129 L 9.76562 -23.4863 C 9.76562 -14.1602 15.3809 -8.49609 24.7559 -8.49609 L 27.7832 -8.49609 L 27.7832 2.53906 C 27.7832 4.00391 28.6133 4.93164 29.8828 4.93164 Z M 28.6133 -51.8555 C 27.7832 -51.8555 27.0996 -52.4902 27.0996 -53.3691 C 27.0996 -54.1992 27.7832 -54.8828 28.6133 -54.8828 L 72.7051 -54.8828 C 73.5352 -54.8828 74.2188 -54.1992 74.2188 -53.3691 C 74.2188 -52.4902 73.5352 -51.8555 72.7051 -51.8555 Z M 28.6133 -38.1348 C 27.7832 -38.1348 27.0996 -38.8184 27.0996 -39.6484 C 27.0996 -40.4785 27.7832 -41.1621 28.6133 -41.1621 L 72.7051 -41.1621 C 73.5352 -41.1621 74.2188 -40.4785 74.2188 -39.6484 C 74.2188 -38.8184 73.5352 -38.1348 72.7051 -38.1348 Z M 28.6133 -24.3652 C 27.7832 -24.3652 27.0996 -25.0488 27.0996 -25.9277 C 27.0996 -26.8066 27.7832 -27.4414 28.6133 -27.4414 L 57.7148 -27.4414 C 58.5449 -27.4414 59.2285 -26.8066 59.2285 -25.9277 C 59.2285 -25.0488 58.5449 -24.3652 57.7148 -24.3652 Z"/>
  </g>
  <g id="Ultralight-S" transform="matrix(1 0 0 1 509.54 696)">
   <path d="M 28.9062 4.15039 C 29.5898 4.15039 30.127 3.71094 30.7617 3.22266 L 44.6777 -8.69141 L 76.5625 -8.69141 C 85.1562 -8.69141 90.5762 -14.209 90.5762 -22.7051 L 90.5762 -56.0059 C 90.5762 -64.502 85.1562 -70.0195 76.5625 -70.0195 L 23.7793 -70.0195 C 15.1855 -70.0195 9.76562 -64.5996 9.76562 -56.0059 L 9.76562 -22.7051 C 9.76562 -14.1113 15.1855 -8.69141 23.7793 -8.69141 L 27.2949 -8.69141 L 27.2949 2.34375 C 27.2949 3.4668 27.9785 4.15039 28.9062 4.15039 Z M 27.832 -52.1973 C 27.2461 -52.1973 26.709 -52.6855 26.709 -53.3691 C 26.709 -54.0039 27.2461 -54.541 27.832 -54.541 L 72.4609 -54.541 C 73.0957 -54.541 73.6328 -54.0039 73.6328 -53.3691 C 73.6328 -52.6855 73.0957 -52.1973 72.4609 -52.1973 Z M 27.832 -38.4766 C 27.2461 -38.4766 26.709 -39.0137 26.709 -39.6484 C 26.709 -40.2832 27.2461 -40.8203 27.832 -40.8203 L 72.4609 -40.8203 C 73.0957 -40.8203 73.6328 -40.2832 73.6328 -39.6484 C 73.6328 -39.0137 73.0957 -38.4766 72.4609 -38.4766 Z M 27.832 -24.707 C 27.2461 -24.707 26.709 -25.2441 26.709 -25.8789 C 26.709 -26.5625 27.2461 -27.0508 27.832 -27.0508 L 57.4707 -27.0508 C 58.1055 -27.0508 58.6426 -26.5625 58.6426 -25.8789 C 58.6426 -25.2441 58.1055 -24.707 57.4707 -24.707 Z"/>
  </g>
 </g>
</svg>
